<svg width="98" height="78" viewBox="0 0 98 78" fill="none" xmlns="http://www.w3.org/2000/svg">
<path d="M38.6075 33.5931C39.3789 34.3724 39.3789 35.6276 38.6075 36.4069L13.4215 61.854C12.1646 63.1239 10 62.2338 10 60.447L10 9.55295C10 7.76617 12.1646 6.87611 13.4215 8.14605L38.6075 33.5931Z" fill="#ececec"/>
<path d="M50.4069 32.1075C49.6276 32.8789 48.3724 32.8789 47.5931 32.1075L22.146 6.92148C20.8761 5.66456 21.7662 3.5 23.553 3.5L74.447 3.5C76.2338 3.5 77.1239 5.66457 75.8539 6.92148L50.4069 32.1075Z" fill="black"/>
<path d="M59.3925 36.4069C58.6211 35.6276 58.6211 34.3724 59.3925 33.5931L84.5785 8.14605C85.8354 6.8761 88 7.76617 88 9.55296V60.447C88 62.2338 85.8354 63.1239 84.5785 61.8539L59.3925 36.4069Z" fill="#ececec"/>
<path d="M47.5931 39.3925C48.3724 38.6211 49.6276 38.6211 50.4069 39.3925L75.854 64.5785C77.1239 65.8354 76.2338 68 74.447 68H23.553C21.7662 68 20.8761 65.8354 22.1461 64.5785L47.5931 39.3925Z" fill="black"/>
</svg>
